<svg width="177" height="17" viewBox="0 0 177 17" fill="none" xmlns="http://www.w3.org/2000/svg">
<path d="M21.6289 8.21104C21.6289 9.55083 21.3828 10.7355 20.8908 11.7649C20.3988 12.7868 19.6949 13.6421 18.779 14.3309C17.8631 15.0198 16.7503 15.542 15.4408 15.8978C14.1389 16.246 12.6742 16.4201 11.0468 16.4201C9.41934 16.4201 7.94708 16.246 6.63 15.8978C5.32049 15.542 4.20399 15.0198 3.28052 14.3309C2.35705 13.6421 1.64552 12.7868 1.14594 11.7649C0.646354 10.7355 0.396563 9.55083 0.396563 8.21104C0.396563 6.87125 0.646354 5.69042 1.14594 4.66854C1.64552 3.6391 2.35705 2.77996 3.28052 2.09115C4.20399 1.40233 5.32049 0.883819 6.63 0.535625C7.94708 0.179861 9.41934 0.00197868 11.0468 0.00197868C12.6742 0.00197868 14.1389 0.179861 15.4408 0.535625C16.7503 0.883819 17.8631 1.40233 18.779 2.09115C19.6949 2.77996 20.3988 3.6391 20.8908 4.66854C21.3828 5.69042 21.6289 6.87125 21.6289 8.21104ZM17.371 8.21104C17.371 7.62819 17.2764 7.04913 17.0872 6.47385C16.9055 5.89101 16.5763 5.36871 16.0994 4.90698C15.6301 4.44524 14.9867 4.07056 14.1692 3.78292C13.3517 3.49528 12.3109 3.35146 11.0468 3.35146C10.199 3.35146 9.4534 3.41958 8.81 3.55583C8.1666 3.68451 7.61024 3.86618 7.14094 4.10083C6.67163 4.33549 6.27802 4.61177 5.9601 4.92969C5.64219 5.24003 5.38861 5.57687 5.19938 5.94021C5.01014 6.29597 4.87389 6.67066 4.79063 7.06427C4.71493 7.45031 4.67708 7.83257 4.67708 8.21104C4.67708 8.59708 4.71493 8.98691 4.79063 9.38052C4.87389 9.77413 5.01014 10.1526 5.19938 10.5159C5.38861 10.8717 5.64219 11.2048 5.9601 11.5151C6.27802 11.8255 6.67163 12.098 7.14094 12.3326C7.61024 12.5597 8.1666 12.7414 8.81 12.8776C9.4534 13.0063 10.199 13.0706 11.0468 13.0706C12.3109 13.0706 13.3517 12.9268 14.1692 12.6392C14.9867 12.3515 15.6301 11.9768 16.0994 11.5151C16.5763 11.0534 16.9055 10.5349 17.0872 9.95958C17.2764 9.37674 17.371 8.79389 17.371 8.21104ZM25.4666 16V0.399375H29.679V16H25.4666ZM34.5726 16V0.399375H38.785V12.5824H50.1732V16H34.5726Z" fill="#E55812"/>
<path d="M67.9311 4.79344C67.6359 4.64962 67.2461 4.48687 66.7617 4.30521C66.2772 4.12354 65.7284 3.95323 65.1153 3.79427C64.5022 3.62774 63.8361 3.49149 63.117 3.38552C62.3979 3.27198 61.6599 3.21521 60.9029 3.21521C60.2974 3.21521 59.7789 3.23413 59.3474 3.27198C58.9235 3.30983 58.564 3.35903 58.2688 3.41958C57.9811 3.48014 57.7502 3.55205 57.5761 3.63531C57.4096 3.71101 57.2809 3.79049 57.1901 3.87375C57.0993 3.95701 57.0387 4.04028 57.0084 4.12354C56.9857 4.20681 56.9744 4.2825 56.9744 4.35062C56.9744 4.57771 57.0879 4.7783 57.315 4.9524C57.5421 5.11892 57.8524 5.27031 58.246 5.40656C58.6397 5.53524 59.0976 5.66014 59.6199 5.78125C60.1422 5.89479 60.6948 6.0159 61.2776 6.14458C61.868 6.26569 62.4736 6.40194 63.0943 6.55333C63.7225 6.69715 64.3281 6.86746 64.9109 7.06427C65.5014 7.26108 66.0577 7.49194 66.58 7.75687C67.1023 8.01424 67.5602 8.31701 67.9539 8.66521C68.3475 9.0134 68.6578 9.41458 68.8849 9.86875C69.112 10.3229 69.2255 10.8414 69.2255 11.4243C69.2255 12.1736 69.0931 12.817 68.8281 13.3545C68.5632 13.8919 68.2074 14.3461 67.7608 14.717C67.3218 15.0879 66.8109 15.3869 66.228 15.614C65.6452 15.8335 65.0321 16.0038 64.3886 16.1249C63.7528 16.246 63.1056 16.3255 62.4471 16.3633C61.7961 16.4012 61.1754 16.4201 60.585 16.4201C59.0408 16.4201 57.6102 16.2914 56.2931 16.0341C54.9836 15.7843 53.8255 15.4701 52.8188 15.0917V11.3675C53.8558 11.9428 55.0366 12.3932 56.3613 12.7186C57.6935 13.0441 59.1165 13.2069 60.6304 13.2069C61.5236 13.2069 62.2503 13.1615 62.8104 13.0706C63.3781 12.9722 63.8209 12.8511 64.1389 12.7073C64.4568 12.5559 64.6725 12.3932 64.786 12.2191C64.8996 12.045 64.9564 11.8784 64.9564 11.7195C64.9564 11.4697 64.8428 11.254 64.6157 11.0723C64.3886 10.8831 64.0783 10.7203 63.6847 10.5841C63.2911 10.4402 62.8331 10.3116 62.3108 10.198C61.7885 10.0769 61.2322 9.95958 60.6418 9.84604C60.0589 9.72493 59.4572 9.59625 58.8365 9.46C58.2158 9.32375 57.6102 9.16479 57.0198 8.98312C56.4369 8.79389 55.8844 8.57816 55.3621 8.33594C54.8398 8.08615 54.3818 7.79472 53.9882 7.46167C53.5946 7.12104 53.2843 6.73121 53.0572 6.29219C52.8301 5.84559 52.7166 5.33087 52.7166 4.74802C52.7166 4.0592 52.8377 3.465 53.0799 2.96542C53.3221 2.46583 53.6476 2.04194 54.0564 1.69375C54.4727 1.33799 54.9496 1.05035 55.487 0.830833C56.032 0.611319 56.6035 0.441006 57.2015 0.319895C57.7994 0.198784 58.405 0.11552 59.0181 0.0701037C59.6313 0.024687 60.2141 0.00197868 60.7667 0.00197868C61.3722 0.00197868 61.9929 0.0322565 62.6288 0.092812C63.2722 0.153368 63.9042 0.240416 64.5249 0.353958C65.1456 0.45993 65.7436 0.584826 66.3189 0.728645C66.9017 0.872465 67.4391 1.02385 67.9311 1.18281V4.79344ZM77.3665 0.399375V9.1875C77.3665 9.77035 77.4157 10.3002 77.5141 10.7771C77.6125 11.2464 77.7941 11.6514 78.0591 11.992C78.324 12.325 78.6949 12.5862 79.1718 12.7754C79.6486 12.9571 80.2693 13.0479 81.0339 13.0479C81.6091 13.0479 82.2109 12.9684 82.8392 12.8095C83.475 12.6505 84.1033 12.4386 84.724 12.1736C85.3447 11.9087 85.9351 11.6059 86.4952 11.2653C87.0629 10.9171 87.5701 10.5576 88.0167 10.1867V0.399375H92.2177V16H88.0167V13.8654C87.4868 14.1682 86.9229 14.4748 86.3249 14.7851C85.7269 15.0879 85.0911 15.3642 84.4174 15.614C83.7437 15.8562 83.0284 16.053 82.2715 16.2044C81.5145 16.3633 80.7159 16.4428 79.8757 16.4428C78.8236 16.4428 77.8812 16.3141 77.0485 16.0568C76.2159 15.807 75.5119 15.4512 74.9367 14.9895C74.3614 14.5202 73.9186 13.9562 73.6082 13.2977C73.3055 12.6316 73.1541 11.8898 73.1541 11.0723V0.399375H77.3665ZM114.642 5.72448C114.642 6.50413 114.529 7.22323 114.302 7.88177C114.074 8.53274 113.707 9.09667 113.2 9.57354C112.701 10.0428 112.05 10.41 111.247 10.6749C110.445 10.9398 109.468 11.0723 108.318 11.0723H101.324V16H97.1114V0.399375H108.318C109.468 0.399375 110.445 0.53184 111.247 0.79677C112.05 1.05413 112.701 1.42125 113.2 1.89812C113.707 2.36743 114.074 2.92757 114.302 3.57854C114.529 4.22951 114.642 4.94483 114.642 5.72448ZM110.384 5.7926C110.384 5.42927 110.331 5.11892 110.225 4.86156C110.127 4.59663 109.96 4.3809 109.726 4.21437C109.491 4.04785 109.185 3.92674 108.806 3.85104C108.428 3.76778 107.962 3.72615 107.41 3.72615H101.324V7.74552H107.41C107.962 7.74552 108.428 7.71524 108.806 7.65469C109.185 7.58656 109.491 7.47681 109.726 7.32542C109.96 7.16646 110.127 6.96208 110.225 6.71229C110.331 6.4625 110.384 6.15594 110.384 5.7926ZM135.67 5.72448C135.67 6.50413 135.557 7.22323 135.329 7.88177C135.102 8.53274 134.735 9.09667 134.228 9.57354C133.729 10.0428 133.078 10.41 132.275 10.6749C131.473 10.9398 130.496 11.0723 129.346 11.0723H122.352V16H118.139V0.399375H129.346C130.496 0.399375 131.473 0.53184 132.275 0.79677C133.078 1.05413 133.729 1.42125 134.228 1.89812C134.735 2.36743 135.102 2.92757 135.329 3.57854C135.557 4.22951 135.67 4.94483 135.67 5.72448ZM131.412 5.7926C131.412 5.42927 131.359 5.11892 131.253 4.86156C131.155 4.59663 130.988 4.3809 130.754 4.21437C130.519 4.04785 130.213 3.92674 129.834 3.85104C129.456 3.76778 128.99 3.72615 128.438 3.72615H122.352V7.74552H128.438C128.99 7.74552 129.456 7.71524 129.834 7.65469C130.213 7.58656 130.519 7.47681 130.754 7.32542C130.988 7.16646 131.155 6.96208 131.253 6.71229C131.359 6.4625 131.412 6.15594 131.412 5.7926ZM143.38 9.32375C143.38 9.97472 143.44 10.5084 143.561 10.9247C143.682 11.3334 143.879 11.6589 144.152 11.9011C144.424 12.1434 144.776 12.3099 145.208 12.4007C145.647 12.4916 146.184 12.537 146.82 12.537H154.813V16H145.957C144.731 16 143.686 15.9016 142.823 15.7048C141.968 15.5004 141.268 15.1901 140.723 14.7737C140.178 14.3499 139.78 13.8162 139.531 13.1728C139.288 12.5294 139.167 11.7649 139.167 10.8793V0.399375H143.38V9.32375ZM176.727 10.005C176.727 11.0193 176.477 11.9239 175.977 12.7186C175.478 13.5134 174.766 14.1871 173.843 14.7397C172.927 15.2847 171.814 15.701 170.505 15.9886C169.203 16.2763 167.742 16.4201 166.122 16.4201C165.41 16.4201 164.661 16.3898 163.874 16.3293C163.094 16.2763 162.33 16.1968 161.58 16.0908C160.839 15.9924 160.142 15.8789 159.491 15.7502C158.84 15.614 158.291 15.4664 157.845 15.3074V11.6059C158.329 11.8103 158.867 12.0033 159.457 12.185C160.055 12.3667 160.702 12.5294 161.399 12.6732C162.095 12.8095 162.841 12.9192 163.635 13.0025C164.438 13.0782 165.286 13.116 166.179 13.116C167.019 13.116 167.757 13.0668 168.393 12.9684C169.036 12.87 169.593 12.7376 170.062 12.571C170.531 12.4045 170.921 12.2153 171.231 12.0033C171.542 11.7838 171.791 11.5605 171.981 11.3334C172.17 11.0988 172.302 10.8679 172.378 10.6408C172.461 10.4137 172.503 10.2018 172.503 10.005V8.63115C171.731 9.19885 170.811 9.66816 169.744 10.0391C168.677 10.4024 167.462 10.5841 166.099 10.5841C164.517 10.5841 163.196 10.4327 162.137 10.1299C161.085 9.81955 160.241 9.37674 159.605 8.80146C158.969 8.21861 158.515 7.51087 158.242 6.67823C157.977 5.84559 157.845 4.90698 157.845 3.8624V0.399375H162.08V3.44229C162.08 4.05542 162.159 4.60042 162.318 5.07729C162.485 5.55417 162.742 5.95535 163.09 6.28083C163.446 6.59875 163.904 6.84097 164.464 7.0075C165.024 7.17403 165.702 7.25729 166.497 7.25729C167.17 7.25729 167.806 7.17403 168.404 7.0075C169.01 6.84097 169.566 6.62146 170.073 6.34896C170.58 6.07646 171.038 5.76611 171.447 5.41792C171.856 5.06972 172.208 4.71396 172.503 4.35062V0.399375H176.727V10.005Z" fill="white"/>
</svg>
