<svg width="133" height="61" viewBox="0 0 133 61" fill="none" xmlns="http://www.w3.org/2000/svg">
<g clip-path="url(#clip0_71_846)">
<path d="M27.5003 16.631C19.4937 16.631 13 23.1246 13 31.1312C13 39.1378 19.4937 45.6315 27.5003 45.6315C35.5068 45.6315 42.0005 39.1378 42.0005 31.1312C42.0238 23.1246 35.5301 16.631 27.5003 16.631ZM26.8486 38.2766C26.0572 38.8352 25.103 39.1611 24.1487 39.1611C22.4729 39.1611 20.9367 38.2533 19.773 36.5775C18.7256 34.9716 18.1438 33.1096 18.0972 31.201C18.0972 31.1312 18.1438 31.0614 18.2136 31.0381L19.354 30.5261C19.4471 30.4795 19.5402 30.5261 19.5868 30.6192C19.5868 30.6424 19.6101 30.6657 19.6101 30.689C19.6101 32.5975 20.1221 34.3897 21.0298 35.7164C21.891 36.9732 23.0082 37.6482 24.172 37.6482C24.8004 37.6482 25.4288 37.462 25.9408 37.1129C26.0107 37.0663 26.127 37.0896 26.1736 37.1594C26.4063 37.462 26.6391 37.7413 26.8951 38.0206C26.9184 38.0904 26.9184 38.2068 26.8486 38.2766ZM35.2508 36.5775C34.1103 38.2301 32.5509 39.1611 30.8751 39.1611C29.1993 39.1611 27.6632 38.2301 26.4994 36.5775C25.4055 34.9949 24.8004 32.9001 24.8004 30.689C24.8004 28.6408 25.9874 27.0348 27.477 27.0348C28.9666 27.0348 30.1536 28.6408 30.1536 30.689C30.1769 32.4812 29.7579 34.2268 28.92 35.8095C28.8735 35.9026 28.7571 35.9258 28.6873 35.8793C28.664 35.8793 28.664 35.856 28.6407 35.8327C28.5011 35.6698 28.3614 35.5069 28.2451 35.344C28.1054 35.1345 27.989 34.9483 27.8727 34.7156C27.8494 34.669 27.8494 34.5992 27.8727 34.5526C28.408 33.3191 28.664 31.9924 28.664 30.6657C28.664 29.6649 28.152 28.5244 27.477 28.5244C26.802 28.5244 26.29 29.6649 26.29 30.6657C26.29 32.5743 26.802 34.3664 27.7097 35.6931C28.5709 36.9499 29.6881 37.6249 30.8519 37.6249C32.0156 37.6249 33.1328 36.9267 33.994 35.6931C34.9017 34.3664 35.4137 32.5743 35.4137 30.6657C35.4137 28.7572 34.9017 26.965 33.994 25.6383C33.7379 25.2427 33.4121 24.8935 33.063 24.591C32.9931 24.5211 32.9931 24.4048 33.0397 24.3349C33.063 24.3117 33.0862 24.2884 33.1095 24.2884L34.25 23.7763C34.3198 23.7531 34.3896 23.7531 34.4362 23.8229C34.7388 24.1255 34.9948 24.4513 35.2275 24.7772C36.3215 26.3599 36.9266 28.4546 36.9266 30.6657C36.9266 32.8768 36.3447 34.9949 35.2508 36.5775Z" fill="white"/>
</g>
<path d="M52.5632 38.1548H58.7995V36.0171H52.5632V38.1548ZM52.5632 27.9258H58.7995V25.7881H52.5632V27.9258ZM52.5632 32.6428H58.4462V30.5404H52.5632V32.6428ZM50.9379 25.7881V38.1548H53.3759V25.7881H50.9379ZM66.3244 33.2081V38.1548H68.6918V32.9608C68.6918 31.9832 68.4562 31.2235 67.9851 30.6818C67.514 30.1282 66.7956 29.8514 65.8298 29.8514C65.2527 29.8514 64.758 29.9751 64.3458 30.2224C63.9453 30.458 63.6214 30.8054 63.3741 31.2648V30.0281H61.0774V38.1548H63.3741V33.2081C63.3741 32.8665 63.4389 32.5721 63.5684 32.3248C63.698 32.0774 63.8864 31.889 64.1338 31.7594C64.3811 31.6181 64.6638 31.5474 64.9818 31.5474C65.4529 31.5474 65.7944 31.6888 66.0064 31.9714C66.2184 32.2541 66.3244 32.6663 66.3244 33.2081ZM74.7796 38.3314C75.7572 38.3314 76.5934 38.143 77.2883 37.7661C77.9949 37.3774 78.5603 36.8003 78.9843 36.0348L76.9879 35.4164C76.7524 35.8051 76.452 36.0995 76.0869 36.2998C75.7336 36.4882 75.3037 36.5824 74.7973 36.5824C74.3497 36.5824 73.9669 36.4823 73.6489 36.2821C73.3309 36.0819 73.0895 35.7933 72.9246 35.4164C72.7715 35.0395 72.6949 34.5802 72.6949 34.0384C72.7067 33.4731 72.7892 33.002 72.9423 32.6251C73.1072 32.2364 73.3368 31.9479 73.6313 31.7594C73.9375 31.5592 74.3144 31.4591 74.7619 31.4591C75.127 31.4591 75.445 31.5415 75.7159 31.7064C75.9868 31.8713 76.1929 32.0951 76.3343 32.3778C76.4874 32.6604 76.5639 33.002 76.5639 33.4024C76.5639 33.4849 76.5404 33.5909 76.4933 33.7204C76.4579 33.8382 76.4167 33.9324 76.3696 34.0031L76.9879 33.1904H71.7056V34.6038H78.9843C78.996 34.5331 79.0019 34.4389 79.0019 34.3211C79.0137 34.2033 79.0196 34.0914 79.0196 33.9854C79.0196 33.1139 78.8547 32.3719 78.5249 31.7594C78.1952 31.1352 77.7123 30.6641 77.0763 30.3461C76.452 30.0163 75.6924 29.8514 74.7973 29.8514C73.9022 29.8514 73.1248 30.0281 72.4653 30.3814C71.8057 30.723 71.2934 31.2118 70.9283 31.8478C70.5749 32.472 70.3983 33.2199 70.3983 34.0914C70.3983 34.9512 70.5749 35.6991 70.9283 36.3351C71.2934 36.9593 71.8057 37.4481 72.4653 37.8014C73.1248 38.1548 73.8963 38.3314 74.7796 38.3314ZM82.9891 30.0281H80.7454V38.1548H82.9891V30.0281ZM85.3741 32.4131L86.4164 30.4698C86.2515 30.2578 86.0336 30.0988 85.7627 29.9928C85.5036 29.8868 85.2269 29.8338 84.9324 29.8338C84.5084 29.8338 84.0962 29.9869 83.6957 30.2931C83.2953 30.5875 82.9714 30.988 82.7241 31.4944C82.4767 31.9891 82.3531 32.5603 82.3531 33.2081L82.9891 33.8441C82.9891 33.4554 83.0362 33.1256 83.1304 32.8548C83.2364 32.5721 83.3895 32.3542 83.5897 32.2011C83.79 32.048 84.0314 31.9714 84.3141 31.9714C84.5496 31.9714 84.744 32.0126 84.8971 32.0951C85.062 32.1658 85.221 32.2718 85.3741 32.4131ZM86.998 30.0281L91.45 39.0028L95.902 30.0281H93.4464L91.45 34.9218L89.4537 30.0281H86.998ZM100.572 38.3314C101.55 38.3314 102.386 38.143 103.081 37.7661C103.788 37.3774 104.353 36.8003 104.777 36.0348L102.781 35.4164C102.545 35.8051 102.245 36.0995 101.88 36.2998C101.526 36.4882 101.096 36.5824 100.59 36.5824C100.142 36.5824 99.7596 36.4823 99.4416 36.2821C99.1236 36.0819 98.8821 35.7933 98.7172 35.4164C98.5641 35.0395 98.4876 34.5802 98.4876 34.0384C98.4993 33.4731 98.5818 33.002 98.7349 32.6251C98.8998 32.2364 99.1295 31.9479 99.4239 31.7594C99.7301 31.5592 100.107 31.4591 100.555 31.4591C100.92 31.4591 101.238 31.5415 101.509 31.7064C101.779 31.8713 101.986 32.0951 102.127 32.3778C102.28 32.6604 102.357 33.002 102.357 33.4024C102.357 33.4849 102.333 33.5909 102.286 33.7204C102.251 33.8382 102.209 33.9324 102.162 34.0031L102.781 33.1904H97.4982V34.6038H104.777C104.789 34.5331 104.795 34.4389 104.795 34.3211C104.806 34.2033 104.812 34.0914 104.812 33.9854C104.812 33.1139 104.647 32.3719 104.318 31.7594C103.988 31.1352 103.505 30.6641 102.869 30.3461C102.245 30.0163 101.485 29.8514 100.59 29.8514C99.6948 29.8514 98.9175 30.0281 98.2579 30.3814C97.5983 30.723 97.086 31.2118 96.7209 31.8478C96.3676 32.472 96.1909 33.2199 96.1909 34.0914C96.1909 34.9512 96.3676 35.6991 96.7209 36.3351C97.086 36.9593 97.5983 37.4481 98.2579 37.8014C98.9175 38.1548 99.6889 38.3314 100.572 38.3314ZM106.944 35.3458L105.831 36.7768C106.138 37.0712 106.479 37.348 106.856 37.6071C107.245 37.8544 107.675 38.0546 108.146 38.2078C108.629 38.3609 109.159 38.4374 109.736 38.4374C110.666 38.4374 111.396 38.2136 111.926 37.7661C112.456 37.3068 112.721 36.6708 112.721 35.8581C112.721 35.3634 112.609 34.963 112.386 34.6568C112.162 34.3505 111.862 34.0973 111.485 33.8971C111.12 33.6851 110.719 33.4966 110.283 33.3318C109.93 33.1786 109.612 33.0491 109.329 32.9431C109.058 32.8371 108.846 32.7193 108.693 32.5898C108.552 32.4484 108.481 32.2894 108.481 32.1128C108.481 31.9125 108.552 31.7653 108.693 31.6711C108.846 31.5651 109.053 31.5121 109.312 31.5121C109.7 31.5121 110.095 31.6122 110.495 31.8124C110.908 32.0126 111.261 32.2718 111.555 32.5898L112.562 31.1764C112.303 30.9173 112.003 30.6935 111.661 30.5051C111.32 30.3049 110.949 30.1459 110.548 30.0281C110.148 29.9103 109.718 29.8514 109.259 29.8514C108.717 29.8514 108.222 29.9398 107.775 30.1164C107.339 30.2813 106.991 30.5345 106.732 30.8761C106.473 31.2059 106.344 31.6122 106.344 32.0951C106.344 32.6015 106.456 33.0196 106.679 33.3494C106.915 33.6674 107.209 33.9265 107.563 34.1268C107.916 34.3152 108.281 34.4801 108.658 34.6214C109.058 34.751 109.388 34.8746 109.647 34.9924C109.906 35.1102 110.101 35.2456 110.23 35.3988C110.372 35.5401 110.442 35.7168 110.442 35.9288C110.442 36.1643 110.36 36.3528 110.195 36.4941C110.03 36.6236 109.795 36.6884 109.488 36.6884C109.253 36.6884 109 36.6413 108.729 36.5471C108.47 36.4529 108.193 36.3115 107.898 36.1231C107.604 35.9229 107.286 35.6638 106.944 35.3458ZM113.259 30.0281V31.9538H118.277V30.0281H113.259ZM114.655 27.2014V38.1548H116.863V27.2014H114.655Z" fill="white"/>
<defs>
<clipPath id="clip0_71_846">
<rect width="29.0238" height="29.0238" fill="white" transform="translate(13 16.631)"/>
</clipPath>
</defs>
</svg>
