<svg width="133" height="61" viewBox="0 0 133 61" fill="none" xmlns="http://www.w3.org/2000/svg">
<g clip-path="url(#clip0_71_834)">
<g clip-path="url(#clip1_71_834)">
<path d="M92.1464 22.3875H94.322V39.6355H92.1464V22.3875ZM87.8148 22.3875H89.9708V39.6355H87.8148V22.3875ZM104.573 34.2847C104.573 37.3031 102.632 38.2243 100.614 38.2243C99.0652 38.2243 98.144 37.4207 98.144 36.2055C98.144 34.4415 100.653 33.8535 104.573 33.4811V34.2847ZM106.533 34.8335L106.552 31.8543C106.592 28.2283 105.063 26.5819 101.476 26.5819C99.0064 26.5819 96.5172 28.1303 96.3408 30.8939H98.5752C98.6732 29.3063 99.6924 28.3459 101.496 28.3459C103.122 28.3459 104.396 29.1103 104.396 31.4623V31.7759C99.1632 32.3443 95.7332 33.2459 95.7332 36.2643C95.7332 38.6163 97.7324 39.9491 100.143 39.9491C102.417 39.9491 103.73 39.2239 104.514 37.8911C104.534 38.4791 104.592 39.0671 104.69 39.6355H106.866C106.592 38.4203 106.513 36.9699 106.533 34.8139V34.8335ZM114.353 26.7779C112.668 26.8367 111.394 27.6207 110.747 29.0711V26.8367H108.63V39.6355H110.786V32.9127C110.786 30.0707 111.786 28.9927 113.785 28.9927C114.196 29.0123 114.588 29.0319 115 29.1103V26.7975C114.784 26.7779 114.569 26.7779 114.353 26.7779ZM71.4684 23.6419H69.2928V26.8367H67.274V28.5811H69.2928V36.4211C69.2928 39.0867 69.8612 39.6355 72.3112 39.6355H73.8988V37.8127H72.8012C71.5664 37.8127 71.4684 37.4795 71.4684 36.1663V28.5811H73.8988V26.8367H71.4684V23.6419ZM61.0216 29.7571L59.0224 29.3063C57.3956 28.9339 56.2 28.1891 56.2 26.6603C56.2 24.7199 58.5324 24.1319 59.8652 24.1319C61.59 24.1319 63.5892 24.8179 64.1576 26.7975H66.5096C65.8236 23.4851 63.0796 22.0935 59.9828 22.0935C57.1996 22.0935 53.75 23.4851 53.75 26.7975C53.75 29.6591 56.102 30.9919 58.4736 31.5015L60.6296 31.9523C62.8052 32.4619 64.334 33.1675 64.334 35.0099C64.334 36.7151 62.8836 37.9107 60.316 37.9107C57.6308 37.9107 56.004 36.6759 55.5532 34.2847H53.1816C53.6324 37.7147 56.2 39.9491 60.2572 39.9491C63.6872 39.9491 66.8232 38.1459 66.8232 34.7747C66.8232 31.3055 63.648 30.3059 61.0216 29.7375V29.7571ZM76.5252 32.1091C76.7212 29.5219 78.4852 28.4831 80.3864 28.4831C82.6992 28.4831 83.9928 30.2863 84.0712 32.1091H76.5252ZM80.3864 26.6211C76.8976 26.6211 74.1732 29.2083 74.1732 33.2655C74.1732 37.0483 76.4076 39.9491 80.4452 39.9491C83.5616 39.9491 85.6196 38.1263 86.1684 35.9311H83.9732C83.4244 37.1855 82.366 38.0479 80.4648 38.0479C78.5636 38.0479 76.584 36.7151 76.5252 33.9711H86.3644C86.6388 29.8943 84.326 26.6407 80.406 26.6407L80.3864 26.6211ZM45.9492 24.8963L23.0956 36.5387L21.0964 37.5383L17 39.6355V42.1443L21.0768 40.0667L24.5656 38.2831L41.4216 29.6983C42.1468 35.1863 38.2856 40.2235 32.7976 40.9487C32.3664 41.0075 31.9156 41.0467 31.4648 41.0467C29.7596 41.0467 28.074 40.5959 26.5648 39.7531L26.4472 39.8315L24.2912 40.9095C29.7596 44.8883 37.4232 43.6731 41.402 38.1851C42.9112 36.1075 43.7344 33.5987 43.7344 31.0115C43.7344 30.6979 43.7344 30.3843 43.6952 30.0707C43.6364 29.1691 44.1068 28.3263 44.9104 27.9147L45.9492 27.3659V24.8963ZM41.8724 21.9759L38.3836 23.7399L21.5472 32.3247C20.822 26.8367 24.7028 21.7995 30.1908 21.0743C32.3272 20.7999 34.5028 21.2115 36.3844 22.2699L38.3836 21.2507L38.6776 21.0939C33.2092 17.1151 25.5456 18.3499 21.5668 23.8183C20.038 25.9155 19.2344 28.4243 19.2344 31.0115C19.2344 31.3251 19.2344 31.6387 19.254 31.9523C19.3324 32.8343 18.862 33.6967 18.0584 34.1083L17 34.6375V37.1463L20.0968 35.5587L21.0964 35.0491L22.096 34.5591L39.834 25.5039L41.8332 24.4847L45.9492 22.3875V19.8787L41.8724 21.9759Z" fill="white"/>
</g>
</g>
<defs>
<clipPath id="clip0_71_834">
<rect width="133" height="61" fill="white"/>
</clipPath>
<clipPath id="clip1_71_834">
<rect width="98" height="98" fill="white" transform="translate(17 -18)"/>
</clipPath>
</defs>
</svg>
