<svg width="133" height="61" viewBox="0 0 133 61" fill="none" xmlns="http://www.w3.org/2000/svg">
<path fill-rule="evenodd" clip-rule="evenodd" d="M110.201 40.475L107.853 34.07H105.096V40.475H100.501V21.785H109.078C112.141 21.785 114.898 21.785 114.898 27.98C114.898 30.5 114.183 32.18 112.856 33.125L112.345 33.44L115 40.37H110.201V40.475ZM104.994 30.395V25.985H108.159C108.772 25.985 110.303 25.985 110.303 28.19C110.303 30.395 108.874 30.395 108.159 30.395H104.994ZM89.2695 40.475V26.195H84.7768V21.785H98.3568V26.195H93.8642V40.475C93.9663 40.475 89.2695 40.475 89.2695 40.475ZM75.9958 40.58C73.2389 40.58 70.38 39.845 69.1547 39.32L70.6863 35.33C72.32 35.855 74.9747 36.065 75.8937 36.065C77.5274 36.065 77.7316 35.225 77.7316 34.7C77.7316 34.28 77.5274 33.44 76.5063 33.125C76.0979 33.02 75.4853 32.915 74.8726 32.81C72.4221 32.6 69.4611 32.285 69.4611 27.245C69.4611 23.15 71.5032 21.365 75.9958 21.365C78.5484 21.365 80.9989 21.995 82.2242 22.52L80.8968 26.405C79.5695 25.985 77.8337 25.67 76.6084 25.67C76.2 25.67 75.8937 25.67 75.5874 25.775C74.4642 25.985 74.1579 26.72 74.1579 27.245C74.1579 27.77 74.3621 28.4 75.3832 28.715C75.7916 28.82 76.2 28.82 76.7105 28.925C79.1611 29.135 82.6326 29.555 82.6326 34.595C82.7347 38.69 80.5905 40.58 75.9958 40.58ZM60.4758 40.475H51.7968V21.785H59.8632H60.68C61.8032 21.785 63.0284 21.89 63.9474 22.52C65.0705 23.255 65.6832 24.62 65.6832 26.615C65.6832 28.295 65.0705 29.555 63.9474 30.5L63.0284 31.34L64.1516 31.865C65.8874 32.495 66.1937 34.28 66.1937 35.645C66.1937 39.845 63.7432 40.475 61.1905 40.475C61.1905 40.475 60.4758 40.475 60.4758 40.475ZM56.1874 29.24H59.0463C59.4547 29.24 59.8632 29.24 60.1695 29.03C60.4758 28.82 60.8842 28.505 60.8842 27.665C60.8842 26.09 59.5568 26.09 59.0463 26.09H56.1874C56.1874 25.985 56.1874 29.24 56.1874 29.24ZM56.1874 36.59V33.335H59.0463C59.5568 33.335 60.8842 33.335 60.8842 34.91C60.8842 35.75 60.4758 36.17 60.1695 36.275C59.8632 36.485 59.4547 36.485 59.0463 36.485C59.1484 36.59 56.1874 36.59 56.1874 36.59ZM40.3611 41C35.2558 41 31.6821 37.745 31.6821 33.125C31.6821 28.715 36.5832 21.47 41.9947 20C40.7695 21.26 39.0337 23.255 38.1147 25.355C36.7874 28.295 36.5832 32.915 36.7874 33.44L36.9916 34.28L37.8084 33.965C38.7274 33.65 39.5442 33.125 40.3611 32.495C40.6674 32.285 40.9737 31.97 41.1779 31.76C41.3821 31.55 41.5863 31.34 41.6884 31.13C43.4242 29.135 44.5474 26.51 44.7516 24.2C47.2021 25.88 49.1421 29.66 49.1421 33.125C49.04 37.745 45.4663 41 40.3611 41ZM18 40.475V21.785H22.5947V36.065H28.6189V40.475H18Z" fill="white"/>
</svg>
