<svg width="155" height="234" viewBox="0 0 155 234" fill="none" xmlns="http://www.w3.org/2000/svg">
<g clip-path="url(#clip0_178_84)">
<path d="M77.4999 0C89.1678 33.293 105.841 56.2395 120.707 76.6956C124.794 82.3284 128.762 87.7833 132.464 93.2383C143.243 109.9 148.07 124.93 148.07 141.948C148.07 172.039 130.953 193.473 103.442 197.891C88.5163 200.292 76.4042 196.379 69.3264 186.921C65.7431 182.119 63.6109 176.189 62.989 169.815C66.4835 173.995 71.6955 176.664 77.5591 176.664C94.2615 176.664 108.15 170.082 115.643 158.579C122.75 147.699 123.372 133.528 117.36 119.683C112.533 108.566 105.396 98.7526 97.8448 88.3466C86.5026 72.6933 73.6205 54.935 65.447 28.2828C69.7706 19.6853 73.887 10.3466 77.4999 0Z" fill="url(#paint0_linear_178_84)"/>
<path d="M-6.10352e-05 157.69C-6.10352e-05 123.923 15.9027 102.043 34.293 76.6956C43.0884 64.5999 52.476 51.6443 61.1234 36.1985C69.593 60.5679 81.7051 77.2886 92.5143 92.1711C99.8585 102.281 106.759 111.827 111.319 122.292C116.531 134.269 116.117 145.891 110.135 155.022C106.403 160.714 100.717 164.953 93.7284 167.473C95.446 164.627 96.4529 161.277 96.4529 157.69C96.4529 145.861 92.1885 137.708 80.1652 120.661C71.1921 107.765 64.6474 96.0548 61.2418 86.7162L58.3693 78.8302L55.1709 86.5976C52.8906 92.1711 49.2481 98.0708 45.4279 104.297C35.1814 120.958 22.4178 141.71 22.4178 174.44C22.4178 193.503 34.5595 215.352 51.943 227.537C55.2302 229.85 59.1392 232.103 63.5813 234C27.4818 227.419 -6.10352e-05 195.697 -6.10352e-05 157.69Z" fill="url(#paint1_linear_178_84)"/>
<path d="M110.016 228.1C84.9627 237.113 66.6316 229.909 55.6744 222.201C39.9197 211.172 28.9033 191.516 28.9033 174.47C28.9033 143.608 41.1339 123.715 50.9657 107.735C53.4829 103.644 55.9113 99.7012 57.9843 95.8472C61.6268 103.792 66.8389 112.716 73.5613 122.529C67.8754 130.652 64.0551 136.73 61.7156 142.244C53.6902 159.054 54.6379 178.146 64.1144 190.835C71.1033 200.203 81.8828 205.124 95.0611 205.124C98.0817 205.124 101.221 204.857 104.478 204.353C120.026 201.863 132.908 194.392 141.792 182.771C149.314 172.898 153.638 160.506 154.437 146.691C154.822 150.219 155.03 153.865 155.03 157.69C155 188.848 136.55 215.767 110.016 228.1Z" fill="url(#paint2_linear_178_84)"/>
</g>
<defs>
<linearGradient id="paint0_linear_178_84" x1="75.2547" y1="3.86268" x2="114.37" y2="195.32" gradientUnits="userSpaceOnUse">
<stop stop-color="#FF9763"/>
<stop offset="1" stop-color="#E55812"/>
</linearGradient>
<linearGradient id="paint1_linear_178_84" x1="6.46348" y1="46.1148" x2="76.8488" y2="192.59" gradientUnits="userSpaceOnUse">
<stop stop-color="#FF9763"/>
<stop offset="1" stop-color="#E55812"/>
</linearGradient>
<linearGradient id="paint2_linear_178_84" x1="68.8819" y1="98.6853" x2="102.125" y2="194.399" gradientUnits="userSpaceOnUse">
<stop stop-color="#FF9763"/>
<stop offset="1" stop-color="#E55812"/>
</linearGradient>
<clipPath id="clip0_178_84">
<rect width="155" height="234" fill="white"/>
</clipPath>
</defs>
</svg>
