<svg width="20" height="20" viewBox="0 0 20 20" fill="none" xmlns="http://www.w3.org/2000/svg">
<g opacity="0.5">
<path d="M1.43443 18.5656C1.49248 18.6237 1.56141 18.6698 1.63728 18.7012C1.71315 18.7327 1.79448 18.7489 1.87662 18.7489C1.95875 18.7489 2.04008 18.7327 2.11596 18.7012C2.19183 18.6698 2.26076 18.6237 2.31881 18.5656L10.0001 10.8843L17.6844 18.5656C17.8017 18.6829 17.9608 18.7487 18.1266 18.7487C18.2925 18.7487 18.4515 18.6829 18.5688 18.5656C18.6861 18.4483 18.752 18.2892 18.752 18.1234C18.752 17.9575 18.6861 17.7985 18.5688 17.6812L10.8844 9.99996L18.5657 2.31558C18.683 2.19831 18.7488 2.03925 18.7488 1.87339C18.7488 1.70754 18.683 1.54848 18.5657 1.43121C18.4484 1.31393 18.2893 1.24805 18.1235 1.24805C17.9576 1.24805 17.7986 1.31393 17.6813 1.43121L10.0001 9.11558L2.31568 1.43433C2.19612 1.33194 2.04232 1.27844 1.88502 1.28451C1.72772 1.29059 1.57851 1.3558 1.4672 1.4671C1.35589 1.57841 1.29069 1.72763 1.28461 1.88492C1.27854 2.04222 1.33204 2.19602 1.43443 2.31558L9.11568 9.99996L1.43443 17.6843C1.31802 17.8014 1.25269 17.9598 1.25269 18.125C1.25269 18.2901 1.31802 18.4485 1.43443 18.5656Z" fill="white"/>
</g>
</svg>
