<svg width="101" height="101" viewBox="0 0 101 101" fill="none" xmlns="http://www.w3.org/2000/svg">
<circle cx="50.2145" cy="50.2145" r="41" transform="rotate(15 50.2145 50.2145)" fill="#E55812"/>
<circle opacity="0.3" cx="50.2146" cy="50.2145" r="25.5" transform="rotate(15 50.2146 50.2145)" fill="#E55812" stroke="white"/>
<path d="M40.8566 44.6015C41.7775 44.8482 42.4525 45.3811 42.8819 46.2001C43.3193 47.0144 43.4113 47.8949 43.1576 48.8415C42.904 49.7881 42.3833 50.5079 41.5955 51.0008C40.8159 51.489 39.9657 51.6097 39.0449 51.363L36.4079 50.6564L38.2196 43.8949L40.8566 44.6015ZM39.2726 50.5129C39.9617 50.6976 40.5898 50.6071 41.1571 50.2414C41.7244 49.8758 42.1047 49.3324 42.2979 48.6111C42.4912 47.8899 42.4336 47.2292 42.1251 46.6289C41.8166 46.0286 41.3179 45.6361 40.6288 45.4515L38.8902 44.9856L37.534 50.0471L39.2726 50.5129ZM47.5428 53.64L46.72 50.6449L45.1262 50.2179L44.4326 52.8066L43.5342 52.5659L45.346 45.8044L48.0506 46.5291C48.6301 46.6844 49.0708 47.0233 49.3724 47.5459C49.6759 48.062 49.7499 48.6098 49.5946 49.1894C49.4773 49.6273 49.2383 49.9911 48.8777 50.281C48.5235 50.5726 48.1205 50.7372 47.6687 50.7749L48.5377 53.9066L47.5428 53.64ZM46.0191 46.8855L45.3436 49.4065L47.1499 49.8905C47.4847 49.9802 47.8009 49.9338 48.0982 49.7512C48.4038 49.5639 48.6032 49.2964 48.6963 48.9487C48.7895 48.6009 48.7498 48.2728 48.5771 47.9643C48.4108 47.6574 48.1602 47.4592 47.8254 47.3694L46.0191 46.8855ZM54.0853 55.393L53.9411 53.729L50.8984 52.9137L49.9415 54.2827L48.9852 54.0265L53.318 47.9405L54.3323 48.2123L55.0416 55.6493L54.0853 55.393ZM51.4327 52.1562L53.8572 52.8058L53.533 49.1473L51.4327 52.1562ZM63.2053 54.2443L63.0966 54.65C62.8602 55.5322 62.3608 56.1852 61.5985 56.609C60.8379 57.0264 59.9585 57.1013 58.9604 56.8339C57.9301 56.5578 57.1674 55.9911 56.6724 55.1338C56.1856 54.2718 56.0734 53.3513 56.3356 52.3725C56.5979 51.3937 57.1545 50.656 58.0054 50.1593C58.8644 49.6579 59.8027 49.5435 60.8201 49.8161C61.4447 49.9835 61.9773 50.2884 62.4178 50.7308C62.86 51.1668 63.1572 51.6674 63.3094 52.2327L62.4151 52.4797C62.3202 52.0608 62.1057 51.6893 61.7716 51.3651C61.4456 51.0362 61.0476 50.8088 60.5775 50.6828C59.8048 50.4758 59.1023 50.5602 58.4702 50.936C57.8397 51.3055 57.4244 51.8637 57.2243 52.6106C57.0241 53.3576 57.1047 54.0487 57.4659 54.6838C57.8336 55.3207 58.4135 55.7453 59.2056 55.9575C59.8817 56.1387 60.4731 56.1211 60.9796 55.9049C61.4879 55.6822 61.8579 55.3189 62.0895 54.815L59.6071 54.1498L59.8245 53.3384L63.2053 54.2443Z" fill="white"/>
<path d="M84.2719 59.706C84.511 59.5679 84.593 59.2621 84.4549 59.023L82.2049 55.1259C82.0668 54.8867 81.761 54.8048 81.5219 54.9429C81.2827 55.0809 81.2008 55.3867 81.3389 55.6259L83.3389 59.09L79.8748 61.09C79.6356 61.228 79.5537 61.5338 79.6918 61.773C79.8298 62.0121 80.1356 62.0941 80.3748 61.956L84.2719 59.706ZM82.9266 59.4971L83.8925 59.7559L84.1513 58.79L83.1854 58.5312L82.9266 59.4971Z" fill="white"/>
<path d="M15.9741 41.4057C15.836 41.1666 15.918 40.8608 16.1571 40.7227L20.0542 38.4727C20.2934 38.3346 20.5992 38.4166 20.7372 38.6557C20.8753 38.8949 20.7934 39.2007 20.5542 39.3387L17.0901 41.3387L19.0901 44.8028C19.2282 45.042 19.1463 45.3478 18.9071 45.4859C18.668 45.6239 18.3622 45.542 18.2241 45.3028L15.9741 41.4057ZM17.2436 41.8975L16.2777 41.6387L16.5365 40.6728L17.5025 40.9316L17.2436 41.8975Z" fill="white"/>
</svg>
