<svg width="239" height="17" viewBox="0 0 239 17" fill="none" xmlns="http://www.w3.org/2000/svg">
<path d="M15.8155 4.79344C15.5203 4.64962 15.1305 4.48687 14.646 4.30521C14.1616 4.12354 13.6128 3.95323 12.9997 3.79427C12.3866 3.62774 11.7205 3.49149 11.0014 3.38552C10.2823 3.27198 9.54424 3.21521 8.78729 3.21521C8.18174 3.21521 7.66323 3.23413 7.23177 3.27198C6.80788 3.30983 6.44833 3.35903 6.15313 3.41958C5.86549 3.48014 5.63462 3.55205 5.46052 3.63531C5.29399 3.71101 5.16531 3.79049 5.07448 3.87375C4.98365 3.95701 4.92309 4.04028 4.89281 4.12354C4.8701 4.20681 4.85875 4.2825 4.85875 4.35062C4.85875 4.57771 4.97229 4.7783 5.19938 4.9524C5.42646 5.11892 5.73681 5.27031 6.13042 5.40656C6.52403 5.53524 6.98198 5.66014 7.50427 5.78125C8.02656 5.89479 8.57913 6.0159 9.16198 6.14458C9.7524 6.26569 10.358 6.40194 10.9786 6.55333C11.6069 6.69715 12.2125 6.86746 12.7953 7.06427C13.3857 7.26108 13.9421 7.49194 14.4644 7.75687C14.9867 8.01424 15.4446 8.31701 15.8382 8.66521C16.2318 9.0134 16.5422 9.41458 16.7693 9.86875C16.9964 10.3229 17.1099 10.8414 17.1099 11.4243C17.1099 12.1736 16.9774 12.817 16.7125 13.3545C16.4476 13.8919 16.0918 14.3461 15.6452 14.717C15.2062 15.0879 14.6952 15.3869 14.1124 15.614C13.5295 15.8335 12.9164 16.0038 12.273 16.1249C11.6372 16.246 10.99 16.3255 10.3315 16.3633C9.68049 16.4012 9.05979 16.4201 8.46938 16.4201C6.92521 16.4201 5.49458 16.2914 4.1775 16.0341C2.86799 15.7843 1.70986 15.4701 0.703125 15.0917V11.3675C1.74014 11.9428 2.92097 12.3932 4.24563 12.7186C5.57785 13.0441 7.0009 13.2069 8.51479 13.2069C9.40799 13.2069 10.1347 13.1615 10.6948 13.0706C11.2625 12.9722 11.7053 12.8511 12.0232 12.7073C12.3411 12.5559 12.5569 12.3932 12.6704 12.2191C12.784 12.045 12.8407 11.8784 12.8407 11.7195C12.8407 11.4697 12.7272 11.254 12.5001 11.0723C12.273 10.8831 11.9627 10.7203 11.5691 10.5841C11.1755 10.4402 10.7175 10.3116 10.1952 10.198C9.67292 10.0769 9.11656 9.95958 8.52615 9.84604C7.9433 9.72493 7.34153 9.59625 6.72083 9.46C6.10014 9.32375 5.49458 9.16479 4.90417 8.98312C4.32132 8.79389 3.76875 8.57816 3.24646 8.33594C2.72417 8.08615 2.26622 7.79472 1.8726 7.46167C1.47899 7.12104 1.16865 6.73121 0.941563 6.29219C0.714479 5.84559 0.600938 5.33087 0.600938 4.74802C0.600938 4.0592 0.722049 3.465 0.964271 2.96542C1.20649 2.46583 1.53198 2.04194 1.94073 1.69375C2.35705 1.33799 2.83392 1.05035 3.37135 0.830833C3.91635 0.611319 4.48785 0.441006 5.08583 0.319895C5.68382 0.198784 6.28938 0.11552 6.9025 0.0701037C7.51563 0.024687 8.09847 0.00197868 8.65104 0.00197868C9.2566 0.00197868 9.87729 0.0322565 10.5131 0.092812C11.1565 0.153368 11.7886 0.240416 12.4093 0.353958C13.03 0.45993 13.628 0.584826 14.2032 0.728645C14.7861 0.872465 15.3235 1.02385 15.8155 1.18281V4.79344ZM29.8493 3.79427V16H25.6369V3.79427H19.0174V0.399375H36.4801V3.79427H29.8493ZM56.6678 15.2279C55.3886 15.6518 54.1093 15.9546 52.8301 16.1363C51.5584 16.3255 50.2565 16.4201 48.9243 16.4201C47.2211 16.4201 45.7035 16.2384 44.3713 15.8751C43.0466 15.5042 41.9301 14.9706 41.0218 14.2742C40.1134 13.5778 39.4208 12.7262 38.944 11.7195C38.4671 10.7127 38.2286 9.57354 38.2286 8.30187C38.2286 7.12104 38.4671 6.02726 38.944 5.02052C39.4284 4.00621 40.1097 3.12816 40.9877 2.38635C41.8733 1.63698 42.9406 1.05413 44.1896 0.637812C45.4385 0.213923 46.8313 0.00197868 48.3679 0.00197868C49.7834 0.00197868 51.0778 0.195 52.251 0.581041C53.4319 0.959513 54.4424 1.52344 55.2826 2.27281C56.1304 3.02219 56.7851 3.94566 57.2469 5.04323C57.7162 6.1408 57.9508 7.4049 57.9508 8.83552V9.8801H42.5773C42.7135 10.3721 42.9368 10.8225 43.2472 11.2312C43.5651 11.64 43.9928 11.9882 44.5302 12.2758C45.0676 12.5635 45.7262 12.7868 46.5058 12.9457C47.2931 13.1047 48.2317 13.1842 49.3217 13.1842C50.0938 13.1842 50.8507 13.1387 51.5925 13.0479C52.3343 12.9495 53.0269 12.8246 53.6703 12.6732C54.3137 12.5143 54.8928 12.3402 55.4075 12.1509C55.9298 11.9617 56.3499 11.7725 56.6678 11.5832V15.2279ZM53.7611 6.79177C53.7233 6.40573 53.606 6.00833 53.4092 5.59958C53.2199 5.18326 52.9172 4.80858 52.5008 4.47552C52.0845 4.14246 51.5395 3.86996 50.8658 3.65802C50.1922 3.43851 49.3519 3.32875 48.3452 3.32875C47.399 3.32875 46.5815 3.44608 45.8927 3.68073C45.2039 3.91538 44.6248 4.20681 44.1555 4.555C43.6938 4.90319 43.3342 5.27788 43.0769 5.67906C42.8195 6.08024 42.653 6.45115 42.5773 6.79177H53.7611ZM65.9896 9.32375C65.9896 9.97472 66.0501 10.5084 66.1713 10.9247C66.2924 11.3334 66.4892 11.6589 66.7617 11.9011C67.0342 12.1434 67.3861 12.3099 67.8176 12.4007C68.2566 12.4916 68.7941 12.537 69.4299 12.537H77.4232V16H68.567C67.3407 16 66.2961 15.9016 65.4332 15.7048C64.5779 15.5004 63.8777 15.1901 63.3327 14.7737C62.7877 14.3499 62.3903 13.8162 62.1405 13.1728C61.8983 12.5294 61.7772 11.7649 61.7772 10.8793V0.399375H65.9896V9.32375ZM85.0192 9.32375C85.0192 9.97472 85.0797 10.5084 85.2008 10.9247C85.322 11.3334 85.5188 11.6589 85.7913 11.9011C86.0638 12.1434 86.4157 12.3099 86.8472 12.4007C87.2862 12.4916 87.8237 12.537 88.4595 12.537H96.4528V16H87.5966C86.3703 16 85.3257 15.9016 84.4628 15.7048C83.6075 15.5004 82.9073 15.1901 82.3623 14.7737C81.8173 14.3499 81.4199 13.8162 81.1701 13.1728C80.9279 12.5294 80.8068 11.7649 80.8068 10.8793V0.399375H85.0192V9.32375ZM113.064 16V14.4672C112.527 14.7624 111.947 15.0235 111.327 15.2506C110.714 15.4777 110.074 15.6707 109.408 15.8297C108.742 15.9886 108.053 16.106 107.341 16.1817C106.638 16.2649 105.926 16.3066 105.207 16.3066C104.367 16.3066 103.553 16.2271 102.766 16.0681C101.986 15.9092 101.293 15.6518 100.688 15.296C100.082 14.9403 99.5941 14.4748 99.2232 13.8995C98.8599 13.3242 98.6782 12.6202 98.6782 11.7876C98.6782 10.7355 98.9659 9.86118 99.5411 9.16479C100.116 8.46083 100.994 7.88556 102.175 7.43896C103.356 6.99236 104.847 6.64795 106.649 6.40573C108.458 6.16351 110.596 5.97427 113.064 5.83802V5.50875C113.064 5.25139 112.996 4.99781 112.86 4.74802C112.723 4.49066 112.474 4.26736 112.11 4.07812C111.754 3.88132 111.262 3.72236 110.634 3.60125C110.013 3.48014 109.219 3.41958 108.25 3.41958C107.485 3.41958 106.728 3.46121 105.979 3.54448C105.237 3.62017 104.518 3.72615 103.822 3.8624C103.133 3.99865 102.478 4.1576 101.857 4.33927C101.237 4.52094 100.673 4.71017 100.166 4.90698V1.1601C100.695 1.02385 101.29 0.891388 101.948 0.762708C102.607 0.634027 103.292 0.52427 104.003 0.433437C104.715 0.335034 105.434 0.25934 106.161 0.206354C106.887 0.145798 107.584 0.11552 108.25 0.11552C109.559 0.11552 110.767 0.225277 111.872 0.444791C112.977 0.656736 113.927 0.989791 114.722 1.44396C115.524 1.89812 116.149 2.4734 116.595 3.16979C117.049 3.86618 117.276 4.69503 117.276 5.65635V16H113.064ZM113.064 8.88094C111.444 8.94149 110.066 9.02854 108.931 9.14208C107.803 9.25562 106.865 9.38809 106.115 9.53948C105.366 9.69087 104.775 9.85361 104.344 10.0277C103.92 10.2018 103.602 10.3797 103.39 10.5614C103.178 10.743 103.046 10.9247 102.993 11.1064C102.947 11.288 102.925 11.4545 102.925 11.6059C102.925 11.7876 102.974 11.9655 103.072 12.1396C103.171 12.3061 103.341 12.4537 103.583 12.5824C103.833 12.7111 104.162 12.8133 104.571 12.889C104.98 12.9647 105.495 13.0025 106.115 13.0025C106.804 13.0025 107.478 12.9495 108.136 12.8435C108.795 12.7376 109.419 12.5937 110.01 12.4121C110.6 12.2228 111.153 12.0033 111.667 11.7535C112.19 11.4962 112.655 11.2237 113.064 10.936V8.88094ZM136.442 3.93052C136.329 3.89267 136.162 3.84347 135.943 3.78292C135.731 3.71479 135.481 3.65045 135.193 3.5899C134.906 3.52177 134.588 3.465 134.239 3.41958C133.899 3.37417 133.547 3.35146 133.184 3.35146C132.427 3.35146 131.719 3.44608 131.06 3.63531C130.409 3.81698 129.8 4.06299 129.232 4.37333C128.665 4.67611 128.135 5.02431 127.643 5.41792C127.158 5.80396 126.712 6.20135 126.303 6.6101V16H122.091V0.399375H126.303V2.93135C126.81 2.55288 127.329 2.18955 127.858 1.84135C128.396 1.48559 128.952 1.17146 129.528 0.898958C130.11 0.626458 130.723 0.410729 131.367 0.25177C132.01 0.0852426 132.692 0.00197868 133.411 0.00197868C133.683 0.00197868 133.959 0.0171176 134.239 0.0473953C134.527 0.0701037 134.803 0.100381 135.068 0.138229C135.341 0.176076 135.594 0.217708 135.829 0.263125C136.064 0.308541 136.268 0.353958 136.442 0.399375V3.93052ZM139.122 16V0.399375H143.334V16H139.122ZM156.971 3.79427V16H152.758V3.79427H146.139V0.399375H163.601V3.79427H156.971ZM184.924 10.005C184.924 11.0193 184.675 11.9239 184.175 12.7186C183.676 13.5134 182.964 14.1871 182.041 14.7397C181.125 15.2847 180.012 15.701 178.702 15.9886C177.4 16.2763 175.94 16.4201 174.32 16.4201C173.608 16.4201 172.859 16.3898 172.072 16.3293C171.292 16.2763 170.527 16.1968 169.778 16.0908C169.036 15.9924 168.34 15.8789 167.689 15.7502C167.038 15.614 166.489 15.4664 166.043 15.3074V11.6059C166.527 11.8103 167.064 12.0033 167.655 12.185C168.253 12.3667 168.9 12.5294 169.596 12.6732C170.293 12.8095 171.038 12.9192 171.833 13.0025C172.635 13.0782 173.483 13.116 174.376 13.116C175.217 13.116 175.955 13.0668 176.591 12.9684C177.234 12.87 177.79 12.7376 178.26 12.571C178.729 12.4045 179.119 12.2153 179.429 12.0033C179.739 11.7838 179.989 11.5605 180.178 11.3334C180.368 11.0988 180.5 10.8679 180.576 10.6408C180.659 10.4137 180.701 10.2018 180.701 10.005V8.63115C179.929 9.19885 179.009 9.66816 177.942 10.0391C176.874 10.4024 175.659 10.5841 174.297 10.5841C172.715 10.5841 171.394 10.4327 170.334 10.1299C169.282 9.81955 168.438 9.37674 167.802 8.80146C167.167 8.21861 166.712 7.51087 166.44 6.67823C166.175 5.84559 166.043 4.90698 166.043 3.8624V0.399375H170.278V3.44229C170.278 4.05542 170.357 4.60042 170.516 5.07729C170.683 5.55417 170.94 5.95535 171.288 6.28083C171.644 6.59875 172.102 6.84097 172.662 7.0075C173.222 7.17403 173.9 7.25729 174.694 7.25729C175.368 7.25729 176.004 7.17403 176.602 7.0075C177.207 6.84097 177.764 6.62146 178.271 6.34896C178.778 6.07646 179.236 5.76611 179.645 5.41792C180.054 5.06972 180.406 4.71396 180.701 4.35062V0.399375H184.924V10.005Z" fill="white"/>
<path d="M209.994 8.21104C209.994 9.55083 209.748 10.7355 209.256 11.7649C208.764 12.7868 208.06 13.6421 207.145 14.3309C206.229 15.0198 205.116 15.542 203.806 15.8978C202.505 16.246 201.04 16.4201 199.412 16.4201C197.785 16.4201 196.313 16.246 194.996 15.8978C193.686 15.542 192.57 15.0198 191.646 14.3309C190.723 13.6421 190.011 12.7868 189.512 11.7649C189.012 10.7355 188.762 9.55083 188.762 8.21104C188.762 6.87125 189.012 5.69042 189.512 4.66854C190.011 3.6391 190.723 2.77996 191.646 2.09115C192.57 1.40233 193.686 0.883819 194.996 0.535625C196.313 0.179861 197.785 0.00197868 199.412 0.00197868C201.04 0.00197868 202.505 0.179861 203.806 0.535625C205.116 0.883819 206.229 1.40233 207.145 2.09115C208.06 2.77996 208.764 3.6391 209.256 4.66854C209.748 5.69042 209.994 6.87125 209.994 8.21104ZM205.737 8.21104C205.737 7.62819 205.642 7.04913 205.453 6.47385C205.271 5.89101 204.942 5.36871 204.465 4.90698C203.996 4.44524 203.352 4.07056 202.535 3.78292C201.717 3.49528 200.676 3.35146 199.412 3.35146C198.565 3.35146 197.819 3.41958 197.176 3.55583C196.532 3.68451 195.976 3.86618 195.507 4.10083C195.037 4.33549 194.644 4.61177 194.326 4.92969C194.008 5.24003 193.754 5.57687 193.565 5.94021C193.376 6.29597 193.24 6.67066 193.156 7.06427C193.081 7.45031 193.043 7.83257 193.043 8.21104C193.043 8.59708 193.081 8.98691 193.156 9.38052C193.24 9.77413 193.376 10.1526 193.565 10.5159C193.754 10.8717 194.008 11.2048 194.326 11.5151C194.644 11.8255 195.037 12.098 195.507 12.3326C195.976 12.5597 196.532 12.7414 197.176 12.8776C197.819 13.0063 198.565 13.0706 199.412 13.0706C200.676 13.0706 201.717 12.9268 202.535 12.6392C203.352 12.3515 203.996 11.9768 204.465 11.5151C204.942 11.0534 205.271 10.5349 205.453 9.95958C205.642 9.37674 205.737 8.79389 205.737 8.21104ZM213.832 16V0.399375H218.045V16H213.832ZM227.151 9.32375C227.151 9.97472 227.211 10.5084 227.332 10.9247C227.453 11.3334 227.65 11.6589 227.923 11.9011C228.195 12.1434 228.547 12.3099 228.979 12.4007C229.418 12.4916 229.955 12.537 230.591 12.537H238.584V16H229.728C228.502 16 227.457 15.9016 226.594 15.7048C225.739 15.5004 225.039 15.1901 224.494 14.7737C223.949 14.3499 223.551 13.8162 223.302 13.1728C223.059 12.5294 222.938 11.7649 222.938 10.8793V0.399375H227.151V9.32375Z" fill="#E55812"/>
</svg>
